%TF.GenerationSoftware,KiCad,Pcbnew,(6.0.4)*%
%TF.CreationDate,2022-04-02T10:59:53-03:00*%
%TF.ProjectId,SilentFanZeroHAT,53696c65-6e74-4466-916e-5a65726f4841,rev?*%
%TF.SameCoordinates,Original*%
%TF.FileFunction,Paste,Top*%
%TF.FilePolarity,Positive*%
%FSLAX46Y46*%
G04 Gerber Fmt 4.6, Leading zero omitted, Abs format (unit mm)*
G04 Created by KiCad (PCBNEW (6.0.4)) date 2022-04-02 10:59:53*
%MOMM*%
%LPD*%
G01*
G04 APERTURE LIST*
G04 Aperture macros list*
%AMRoundRect*
0 Rectangle with rounded corners*
0 $1 Rounding radius*
0 $2 $3 $4 $5 $6 $7 $8 $9 X,Y pos of 4 corners*
0 Add a 4 corners polygon primitive as box body*
4,1,4,$2,$3,$4,$5,$6,$7,$8,$9,$2,$3,0*
0 Add four circle primitives for the rounded corners*
1,1,$1+$1,$2,$3*
1,1,$1+$1,$4,$5*
1,1,$1+$1,$6,$7*
1,1,$1+$1,$8,$9*
0 Add four rect primitives between the rounded corners*
20,1,$1+$1,$2,$3,$4,$5,0*
20,1,$1+$1,$4,$5,$6,$7,0*
20,1,$1+$1,$6,$7,$8,$9,0*
20,1,$1+$1,$8,$9,$2,$3,0*%
G04 Aperture macros list end*
%ADD10R,1.200000X0.900000*%
%ADD11RoundRect,0.200000X-0.275000X0.200000X-0.275000X-0.200000X0.275000X-0.200000X0.275000X0.200000X0*%
%ADD12RoundRect,0.150000X-0.150000X0.512500X-0.150000X-0.512500X0.150000X-0.512500X0.150000X0.512500X0*%
%ADD13RoundRect,0.200000X0.275000X-0.200000X0.275000X0.200000X-0.275000X0.200000X-0.275000X-0.200000X0*%
%ADD14RoundRect,0.243750X-0.456250X0.243750X-0.456250X-0.243750X0.456250X-0.243750X0.456250X0.243750X0*%
%ADD15R,2.700000X3.600000*%
%ADD16RoundRect,0.150000X-0.150000X0.587500X-0.150000X-0.587500X0.150000X-0.587500X0.150000X0.587500X0*%
%ADD17RoundRect,0.225000X0.250000X-0.225000X0.250000X0.225000X-0.250000X0.225000X-0.250000X-0.225000X0*%
%ADD18RoundRect,0.250000X-0.375000X-0.625000X0.375000X-0.625000X0.375000X0.625000X-0.375000X0.625000X0*%
%ADD19RoundRect,0.250000X-0.325000X-1.100000X0.325000X-1.100000X0.325000X1.100000X-0.325000X1.100000X0*%
G04 APERTURE END LIST*
D10*
%TO.C,D4*%
X228850000Y-121725000D03*
X228850000Y-118425000D03*
%TD*%
%TO.C,D2*%
X212450000Y-121725000D03*
X212450000Y-118425000D03*
%TD*%
D11*
%TO.C,R11*%
X259000000Y-114062500D03*
X259000000Y-115712500D03*
%TD*%
D12*
%TO.C,U1*%
X229850000Y-113625000D03*
X228900000Y-113625000D03*
X227950000Y-113625000D03*
X227950000Y-115900000D03*
X229850000Y-115900000D03*
%TD*%
%TO.C,U3*%
X262650000Y-113625000D03*
X261700000Y-113625000D03*
X260750000Y-113625000D03*
X260750000Y-115900000D03*
X262650000Y-115900000D03*
%TD*%
D13*
%TO.C,R12*%
X261700000Y-111325000D03*
X261700000Y-109675000D03*
%TD*%
%TO.C,R2*%
X214300000Y-113125000D03*
X214300000Y-111475000D03*
%TD*%
D14*
%TO.C,D1*%
X223400000Y-119162500D03*
X223400000Y-121037500D03*
%TD*%
D15*
%TO.C,L1*%
X216950000Y-107000000D03*
X225250000Y-107000000D03*
%TD*%
D16*
%TO.C,Q1*%
X223950000Y-114062500D03*
X222050000Y-114062500D03*
X223000000Y-115937500D03*
%TD*%
D13*
%TO.C,R8*%
X245300000Y-111325000D03*
X245300000Y-109675000D03*
%TD*%
D15*
%TO.C,L3*%
X249750000Y-107000000D03*
X258050000Y-107000000D03*
%TD*%
D11*
%TO.C,R5*%
X241600000Y-119275000D03*
X241600000Y-120925000D03*
%TD*%
D16*
%TO.C,Q2*%
X240350000Y-114062500D03*
X238450000Y-114062500D03*
X239400000Y-115937500D03*
%TD*%
D13*
%TO.C,R4*%
X228900000Y-111325000D03*
X228900000Y-109675000D03*
%TD*%
D17*
%TO.C,C6*%
X247100000Y-109275000D03*
X247100000Y-107725000D03*
%TD*%
D18*
%TO.C,F1*%
X204940000Y-102000000D03*
X207740000Y-102000000D03*
%TD*%
D17*
%TO.C,C4*%
X230700000Y-109275000D03*
X230700000Y-107725000D03*
%TD*%
D19*
%TO.C,C1*%
X216725000Y-115430000D03*
X219675000Y-115430000D03*
%TD*%
D15*
%TO.C,L2*%
X233350000Y-107000000D03*
X241650000Y-107000000D03*
%TD*%
D19*
%TO.C,C5*%
X249525000Y-115430000D03*
X252475000Y-115430000D03*
%TD*%
D11*
%TO.C,R7*%
X242600000Y-114062500D03*
X242600000Y-115712500D03*
%TD*%
D13*
%TO.C,R10*%
X247100000Y-112425000D03*
X247100000Y-110775000D03*
%TD*%
D17*
%TO.C,C2*%
X214300000Y-109975000D03*
X214300000Y-108425000D03*
%TD*%
D11*
%TO.C,R1*%
X225200000Y-119275000D03*
X225200000Y-120925000D03*
%TD*%
D14*
%TO.C,D3*%
X239800000Y-119162500D03*
X239800000Y-121037500D03*
%TD*%
D13*
%TO.C,R6*%
X230700000Y-112425000D03*
X230700000Y-110775000D03*
%TD*%
D11*
%TO.C,R9*%
X258000000Y-119275000D03*
X258000000Y-120925000D03*
%TD*%
D16*
%TO.C,Q3*%
X256750000Y-114062500D03*
X254850000Y-114062500D03*
X255800000Y-115937500D03*
%TD*%
D19*
%TO.C,C3*%
X233125000Y-115430000D03*
X236075000Y-115430000D03*
%TD*%
D12*
%TO.C,U2*%
X246250000Y-113625000D03*
X245300000Y-113625000D03*
X244350000Y-113625000D03*
X244350000Y-115900000D03*
X246250000Y-115900000D03*
%TD*%
D14*
%TO.C,D5*%
X256200000Y-119162500D03*
X256200000Y-121037500D03*
%TD*%
D11*
%TO.C,R3*%
X226200000Y-114062500D03*
X226200000Y-115712500D03*
%TD*%
D10*
%TO.C,D6*%
X245250000Y-121725000D03*
X245250000Y-118425000D03*
%TD*%
M02*
