%TF.GenerationSoftware,KiCad,Pcbnew,(6.0.4)*%
%TF.CreationDate,2022-05-04T21:07:06-03:00*%
%TF.ProjectId,SilentFanZeroHAT,53696c65-6e74-4466-916e-5a65726f4841,rev?*%
%TF.SameCoordinates,Original*%
%TF.FileFunction,Legend,Bot*%
%TF.FilePolarity,Positive*%
%FSLAX46Y46*%
G04 Gerber Fmt 4.6, Leading zero omitted, Abs format (unit mm)*
G04 Created by KiCad (PCBNEW (6.0.4)) date 2022-05-04 21:07:06*
%MOMM*%
%LPD*%
G01*
G04 APERTURE LIST*
%ADD10C,0.150000*%
%ADD11C,0.500000*%
%ADD12C,0.120000*%
G04 APERTURE END LIST*
D10*
X217521428Y-122407142D02*
X216378571Y-122407142D01*
X216950000Y-122978571D02*
X216950000Y-121835714D01*
X220021428Y-122407142D02*
X218878571Y-122407142D01*
X210685714Y-105781428D02*
X210614285Y-105710000D01*
X210471428Y-105638571D01*
X210114285Y-105638571D01*
X209971428Y-105710000D01*
X209900000Y-105781428D01*
X209828571Y-105924285D01*
X209828571Y-106067142D01*
X209900000Y-106281428D01*
X210757142Y-107138571D01*
X209828571Y-107138571D01*
X208542857Y-106138571D02*
X208542857Y-107138571D01*
X208900000Y-105567142D02*
X209257142Y-106638571D01*
X208328571Y-106638571D01*
X207971428Y-105638571D02*
X207471428Y-107138571D01*
X206971428Y-105638571D01*
X233921428Y-122407142D02*
X232778571Y-122407142D01*
X233350000Y-122978571D02*
X233350000Y-121835714D01*
X252821428Y-122407142D02*
X251678571Y-122407142D01*
X210042857Y-110790000D02*
X210185714Y-110718571D01*
X210400000Y-110718571D01*
X210614285Y-110790000D01*
X210757142Y-110932857D01*
X210828571Y-111075714D01*
X210900000Y-111361428D01*
X210900000Y-111575714D01*
X210828571Y-111861428D01*
X210757142Y-112004285D01*
X210614285Y-112147142D01*
X210400000Y-112218571D01*
X210257142Y-112218571D01*
X210042857Y-112147142D01*
X209971428Y-112075714D01*
X209971428Y-111575714D01*
X210257142Y-111575714D01*
X209328571Y-112218571D02*
X209328571Y-110718571D01*
X208471428Y-112218571D01*
X208471428Y-110718571D01*
X207757142Y-112218571D02*
X207757142Y-110718571D01*
X207400000Y-110718571D01*
X207185714Y-110790000D01*
X207042857Y-110932857D01*
X206971428Y-111075714D01*
X206900000Y-111361428D01*
X206900000Y-111575714D01*
X206971428Y-111861428D01*
X207042857Y-112004285D01*
X207185714Y-112147142D01*
X207400000Y-112218571D01*
X207757142Y-112218571D01*
D11*
X260170238Y-105799523D02*
X259896428Y-105894761D01*
X259420238Y-105894761D01*
X259217857Y-105799523D01*
X259110714Y-105704285D01*
X258991666Y-105513809D01*
X258967857Y-105323333D01*
X259039285Y-105132857D01*
X259122619Y-105037619D01*
X259301190Y-104942380D01*
X259670238Y-104847142D01*
X259848809Y-104751904D01*
X259932142Y-104656666D01*
X260003571Y-104466190D01*
X259979761Y-104275714D01*
X259860714Y-104085238D01*
X259753571Y-103990000D01*
X259551190Y-103894761D01*
X259075000Y-103894761D01*
X258801190Y-103990000D01*
X258182142Y-105894761D02*
X258015476Y-104561428D01*
X257932142Y-103894761D02*
X258039285Y-103990000D01*
X257955952Y-104085238D01*
X257848809Y-103990000D01*
X257932142Y-103894761D01*
X257955952Y-104085238D01*
X256944047Y-105894761D02*
X257122619Y-105799523D01*
X257194047Y-105609047D01*
X256979761Y-103894761D01*
X255408333Y-105799523D02*
X255610714Y-105894761D01*
X255991666Y-105894761D01*
X256170238Y-105799523D01*
X256241666Y-105609047D01*
X256146428Y-104847142D01*
X256027380Y-104656666D01*
X255825000Y-104561428D01*
X255444047Y-104561428D01*
X255265476Y-104656666D01*
X255194047Y-104847142D01*
X255217857Y-105037619D01*
X256194047Y-105228095D01*
X254301190Y-104561428D02*
X254467857Y-105894761D01*
X254325000Y-104751904D02*
X254217857Y-104656666D01*
X254015476Y-104561428D01*
X253729761Y-104561428D01*
X253551190Y-104656666D01*
X253479761Y-104847142D01*
X253610714Y-105894761D01*
X252777380Y-104561428D02*
X252015476Y-104561428D01*
X252408333Y-103894761D02*
X252622619Y-105609047D01*
X252551190Y-105799523D01*
X252372619Y-105894761D01*
X252182142Y-105894761D01*
X249194047Y-104847142D02*
X249860714Y-104847142D01*
X249991666Y-105894761D02*
X249741666Y-103894761D01*
X248789285Y-103894761D01*
X247420238Y-105894761D02*
X247289285Y-104847142D01*
X247360714Y-104656666D01*
X247539285Y-104561428D01*
X247920238Y-104561428D01*
X248122619Y-104656666D01*
X247408333Y-105799523D02*
X247610714Y-105894761D01*
X248086904Y-105894761D01*
X248265476Y-105799523D01*
X248336904Y-105609047D01*
X248313095Y-105418571D01*
X248194047Y-105228095D01*
X247991666Y-105132857D01*
X247515476Y-105132857D01*
X247313095Y-105037619D01*
X246301190Y-104561428D02*
X246467857Y-105894761D01*
X246325000Y-104751904D02*
X246217857Y-104656666D01*
X246015476Y-104561428D01*
X245729761Y-104561428D01*
X245551190Y-104656666D01*
X245479761Y-104847142D01*
X245610714Y-105894761D01*
X260027380Y-107114761D02*
X258694047Y-107114761D01*
X260277380Y-109114761D01*
X258944047Y-109114761D01*
X257408333Y-109019523D02*
X257610714Y-109114761D01*
X257991666Y-109114761D01*
X258170238Y-109019523D01*
X258241666Y-108829047D01*
X258146428Y-108067142D01*
X258027380Y-107876666D01*
X257825000Y-107781428D01*
X257444047Y-107781428D01*
X257265476Y-107876666D01*
X257194047Y-108067142D01*
X257217857Y-108257619D01*
X258194047Y-108448095D01*
X256467857Y-109114761D02*
X256301190Y-107781428D01*
X256348809Y-108162380D02*
X256229761Y-107971904D01*
X256122619Y-107876666D01*
X255920238Y-107781428D01*
X255729761Y-107781428D01*
X254944047Y-109114761D02*
X255122619Y-109019523D01*
X255205952Y-108924285D01*
X255277380Y-108733809D01*
X255205952Y-108162380D01*
X255086904Y-107971904D01*
X254979761Y-107876666D01*
X254777380Y-107781428D01*
X254491666Y-107781428D01*
X254313095Y-107876666D01*
X254229761Y-107971904D01*
X254158333Y-108162380D01*
X254229761Y-108733809D01*
X254348809Y-108924285D01*
X254455952Y-109019523D01*
X254658333Y-109114761D01*
X254944047Y-109114761D01*
X251896428Y-109114761D02*
X251646428Y-107114761D01*
X251765476Y-108067142D02*
X250622619Y-108067142D01*
X250753571Y-109114761D02*
X250503571Y-107114761D01*
X249825000Y-108543333D02*
X248872619Y-108543333D01*
X250086904Y-109114761D02*
X249170238Y-107114761D01*
X248753571Y-109114761D01*
X248122619Y-107114761D02*
X246979761Y-107114761D01*
X247801190Y-109114761D02*
X247551190Y-107114761D01*
D10*
X250321428Y-122407142D02*
X249178571Y-122407142D01*
X249750000Y-122978571D02*
X249750000Y-121835714D01*
X236421428Y-122407142D02*
X235278571Y-122407142D01*
%TO.C,P1*%
X207596095Y-101430380D02*
X207596095Y-100430380D01*
X207215142Y-100430380D01*
X207119904Y-100478000D01*
X207072285Y-100525619D01*
X207024666Y-100620857D01*
X207024666Y-100763714D01*
X207072285Y-100858952D01*
X207119904Y-100906571D01*
X207215142Y-100954190D01*
X207596095Y-100954190D01*
X206072285Y-101430380D02*
X206643714Y-101430380D01*
X206358000Y-101430380D02*
X206358000Y-100430380D01*
X206453238Y-100573238D01*
X206548476Y-100668476D01*
X206643714Y-100716095D01*
D12*
X257960000Y-94900000D02*
X257960000Y-100100000D01*
X209640000Y-100100000D02*
X257960000Y-100100000D01*
X207040000Y-98770000D02*
X207040000Y-100100000D01*
X207040000Y-94900000D02*
X207040000Y-97500000D01*
X207040000Y-100100000D02*
X208370000Y-100100000D01*
X207040000Y-97500000D02*
X209640000Y-97500000D01*
X209640000Y-97500000D02*
X209640000Y-100100000D01*
X207040000Y-94900000D02*
X257960000Y-94900000D01*
%TO.C,G\u002A\u002A\u002A*%
G36*
X233556018Y-114137192D02*
G01*
X233097586Y-114215506D01*
X232547334Y-114224911D01*
X231968730Y-114158781D01*
X231385217Y-114021346D01*
X230820237Y-113816832D01*
X230297234Y-113549468D01*
X230081649Y-113407841D01*
X229648712Y-113038008D01*
X229537763Y-112904834D01*
X230110066Y-112904834D01*
X230131008Y-112972575D01*
X230240433Y-113098041D01*
X230428026Y-113238311D01*
X230676319Y-113383541D01*
X230967845Y-113523886D01*
X231285135Y-113649503D01*
X231610722Y-113750547D01*
X231686731Y-113769104D01*
X232033559Y-113827544D01*
X232424910Y-113861127D01*
X232822828Y-113868806D01*
X233189357Y-113849535D01*
X233486543Y-113802267D01*
X233654678Y-113753072D01*
X233784300Y-113698924D01*
X233833917Y-113655118D01*
X233833733Y-113648349D01*
X233797298Y-113514769D01*
X233708926Y-113323677D01*
X233584920Y-113102372D01*
X233441584Y-112878154D01*
X233295219Y-112678325D01*
X233162130Y-112530184D01*
X233047056Y-112427141D01*
X232787996Y-112238638D01*
X232521328Y-112118364D01*
X232214020Y-112053965D01*
X231833042Y-112033087D01*
X231655228Y-112032997D01*
X231444766Y-112041793D01*
X231281446Y-112067957D01*
X231126339Y-112118851D01*
X230940517Y-112201834D01*
X230897630Y-112222815D01*
X230671078Y-112353316D01*
X230457681Y-112504854D01*
X230278804Y-112659344D01*
X230155811Y-112798699D01*
X230110066Y-112904834D01*
X229537763Y-112904834D01*
X229289310Y-112606611D01*
X229009342Y-112127596D01*
X228814709Y-111614913D01*
X228711312Y-111082509D01*
X228705050Y-110544333D01*
X228801824Y-110014332D01*
X228901957Y-109666958D01*
X237279869Y-109666958D01*
X237279869Y-109833698D01*
X237269643Y-109943996D01*
X237216036Y-109991142D01*
X237085339Y-110000438D01*
X237076164Y-110000495D01*
X236940707Y-110020465D01*
X236888015Y-110069912D01*
X236865559Y-110311989D01*
X236749839Y-110811258D01*
X236537942Y-111359193D01*
X236229107Y-111957973D01*
X236019215Y-112291855D01*
X235612339Y-112807878D01*
X235147194Y-113262968D01*
X234639167Y-113644580D01*
X234620075Y-113655118D01*
X234103646Y-113940169D01*
X233556018Y-114137192D01*
G37*
G36*
X232283351Y-108458901D02*
G01*
X232224240Y-108612550D01*
X230514089Y-108597851D01*
X228803939Y-108583151D01*
X228699361Y-108369000D01*
X228652848Y-108244362D01*
X228604100Y-107961731D01*
X228601089Y-107792011D01*
X228937872Y-107792011D01*
X228948051Y-107980147D01*
X228971319Y-108112741D01*
X228979344Y-108133712D01*
X229001688Y-108161765D01*
X229046586Y-108183142D01*
X229126697Y-108198748D01*
X229254677Y-108209489D01*
X229443185Y-108216268D01*
X229704879Y-108219990D01*
X230052416Y-108221559D01*
X230498454Y-108221882D01*
X231990949Y-108221882D01*
X232030728Y-108041247D01*
X232037220Y-108009853D01*
X232066661Y-107654512D01*
X232032620Y-107271655D01*
X231939534Y-106916039D01*
X231915170Y-106854856D01*
X231722434Y-106519638D01*
X231462721Y-106245459D01*
X231154051Y-106041858D01*
X230814440Y-105918372D01*
X230461907Y-105884540D01*
X230114469Y-105949900D01*
X229935546Y-106012273D01*
X230088208Y-106171619D01*
X230174781Y-106278688D01*
X230228650Y-106416991D01*
X230244943Y-106613950D01*
X230245240Y-106681221D01*
X230230828Y-106836816D01*
X230178081Y-106946499D01*
X230067504Y-107059190D01*
X229989862Y-107118627D01*
X229751414Y-107212985D01*
X229490472Y-107210670D01*
X229233340Y-107110077D01*
X229199996Y-107089965D01*
X229086469Y-107025228D01*
X229029800Y-106999125D01*
X228998605Y-107044673D01*
X228971148Y-107174662D01*
X228950893Y-107361236D01*
X228939310Y-107576363D01*
X228937872Y-107792011D01*
X228601089Y-107792011D01*
X228598191Y-107628610D01*
X228634790Y-107278160D01*
X228713567Y-106943545D01*
X228801345Y-106701061D01*
X229021723Y-106286396D01*
X229302459Y-105964941D01*
X229644234Y-105736171D01*
X230047726Y-105599563D01*
X230513616Y-105554591D01*
X230697671Y-105562517D01*
X231077418Y-105640228D01*
X231426141Y-105808716D01*
X231766995Y-106077645D01*
X231950965Y-106276972D01*
X232191852Y-106659548D01*
X232350101Y-107090085D01*
X232421144Y-107547528D01*
X232416357Y-107654512D01*
X232400416Y-108010819D01*
X232283351Y-108458901D01*
G37*
G36*
X238816855Y-110029091D02*
G01*
X238760799Y-110313484D01*
X238530409Y-111114530D01*
X238205450Y-111869051D01*
X237792707Y-112569913D01*
X237298965Y-113209981D01*
X236731010Y-113782119D01*
X236095628Y-114279194D01*
X235399603Y-114694070D01*
X234649723Y-115019613D01*
X233852771Y-115248688D01*
X233649594Y-115292448D01*
X233458660Y-115332527D01*
X233333698Y-115357561D01*
X233295544Y-115361872D01*
X233146601Y-115368179D01*
X232921127Y-115371054D01*
X232642290Y-115370305D01*
X232333261Y-115365744D01*
X232298267Y-115364974D01*
X231720352Y-115334726D01*
X231212543Y-115267637D01*
X230739366Y-115155406D01*
X230265349Y-114989730D01*
X229755019Y-114762307D01*
X229522064Y-114643738D01*
X228850228Y-114231435D01*
X228230148Y-113744972D01*
X227680556Y-113200229D01*
X227220183Y-112613090D01*
X227132261Y-112477918D01*
X226882148Y-112035614D01*
X226646203Y-111539782D01*
X226443439Y-111032598D01*
X226292872Y-110556236D01*
X226270401Y-110470289D01*
X226219112Y-110258468D01*
X226183089Y-110068938D01*
X226159690Y-109875013D01*
X226146273Y-109650005D01*
X226140197Y-109367230D01*
X226138819Y-109000000D01*
X226138852Y-108963328D01*
X226626751Y-108963328D01*
X226669669Y-109721828D01*
X226811723Y-110467729D01*
X227052094Y-111192019D01*
X227389961Y-111885685D01*
X227824505Y-112539715D01*
X228354903Y-113145097D01*
X228873101Y-113608160D01*
X229533177Y-114064182D01*
X230243175Y-114422384D01*
X230997442Y-114679986D01*
X231790319Y-114834206D01*
X232451029Y-114878179D01*
X233229289Y-114831747D01*
X233990250Y-114682347D01*
X234723472Y-114434418D01*
X235418516Y-114092400D01*
X236064946Y-113660732D01*
X236652323Y-113143853D01*
X237170208Y-112546203D01*
X237340183Y-112309277D01*
X237748238Y-111617265D01*
X238054356Y-110892421D01*
X238258336Y-110143688D01*
X238359976Y-109380005D01*
X238359073Y-108610315D01*
X238255425Y-107843559D01*
X238048831Y-107088677D01*
X237739088Y-106354611D01*
X237325994Y-105650302D01*
X237258456Y-105555405D01*
X237025331Y-105268361D01*
X236740694Y-104959021D01*
X236433031Y-104655952D01*
X236130831Y-104387718D01*
X235862582Y-104182885D01*
X235187360Y-103783611D01*
X234447957Y-103465175D01*
X233687797Y-103251591D01*
X232915082Y-103142870D01*
X232138016Y-103139026D01*
X231364801Y-103240071D01*
X230603642Y-103446018D01*
X229862741Y-103756878D01*
X229150303Y-104172665D01*
X229069608Y-104229403D01*
X228779348Y-104462665D01*
X228465497Y-104750412D01*
X228157082Y-105063619D01*
X227883129Y-105373258D01*
X227672665Y-105650302D01*
X227462861Y-105983597D01*
X227101026Y-106702365D01*
X226841609Y-107444584D01*
X226683791Y-108201243D01*
X226626751Y-108963328D01*
X226138852Y-108963328D01*
X226138902Y-108908531D01*
X226141446Y-108559485D01*
X226149451Y-108288817D01*
X226165496Y-108069754D01*
X226192159Y-107875523D01*
X226232017Y-107679352D01*
X226287650Y-107454468D01*
X226346975Y-107247128D01*
X226517921Y-106765567D01*
X226733242Y-106266621D01*
X226973732Y-105792874D01*
X227220183Y-105386910D01*
X227262411Y-105326087D01*
X227559451Y-104948183D01*
X227918038Y-104557537D01*
X228306403Y-104186894D01*
X228692779Y-103868999D01*
X228933395Y-103701434D01*
X229400020Y-103424590D01*
X229913584Y-103167864D01*
X230434254Y-102950506D01*
X230922196Y-102791762D01*
X231002274Y-102770546D01*
X231202972Y-102721785D01*
X231387412Y-102687196D01*
X231581075Y-102664301D01*
X231809442Y-102650622D01*
X232097994Y-102643680D01*
X232472210Y-102640998D01*
X232697176Y-102640627D01*
X233014723Y-102642977D01*
X233261607Y-102651234D01*
X233463515Y-102667853D01*
X233646132Y-102695291D01*
X233835144Y-102736003D01*
X234056236Y-102792446D01*
X234319122Y-102870039D01*
X234810022Y-103049367D01*
X235305024Y-103268442D01*
X235765955Y-103509740D01*
X236154642Y-103755737D01*
X236468115Y-103992840D01*
X237097627Y-104566748D01*
X237639002Y-105208199D01*
X238091513Y-105916124D01*
X238454433Y-106689458D01*
X238727033Y-107527133D01*
X238778148Y-107761613D01*
X238838365Y-108193348D01*
X238873676Y-108673040D01*
X238882748Y-109163611D01*
X238874129Y-109380005D01*
X238864252Y-109627987D01*
X238816855Y-110029091D01*
G37*
G36*
X237583405Y-108322954D02*
G01*
X237497882Y-108610941D01*
X234498124Y-108610941D01*
X234439252Y-108458096D01*
X234383206Y-108247976D01*
X234348599Y-107921181D01*
X234349599Y-107711468D01*
X234673497Y-107711468D01*
X234675603Y-107920834D01*
X234690809Y-108077983D01*
X234728232Y-108277462D01*
X237271870Y-108277462D01*
X237310740Y-107966357D01*
X237332322Y-107718639D01*
X237317953Y-107258842D01*
X237232163Y-106850960D01*
X237080848Y-106503866D01*
X236869903Y-106226432D01*
X236605224Y-106027532D01*
X236292708Y-105916040D01*
X235938250Y-105900827D01*
X235845183Y-105911543D01*
X235702601Y-105936315D01*
X235631644Y-105960989D01*
X235630212Y-105983267D01*
X235676593Y-106071075D01*
X235771816Y-106193284D01*
X235797225Y-106223684D01*
X235921616Y-106453446D01*
X235951574Y-106691090D01*
X235892524Y-106913629D01*
X235749892Y-107098075D01*
X235529106Y-107221443D01*
X235358981Y-107256090D01*
X235156418Y-107224413D01*
X234935521Y-107101986D01*
X234920024Y-107091272D01*
X234807510Y-107035516D01*
X234746924Y-107061276D01*
X234726494Y-107119448D01*
X234700871Y-107275838D01*
X234682562Y-107484824D01*
X234673497Y-107711468D01*
X234349599Y-107711468D01*
X234350363Y-107551409D01*
X234386510Y-107172227D01*
X234455055Y-106817199D01*
X234554008Y-106519892D01*
X234561745Y-106502697D01*
X234761193Y-106183546D01*
X235034292Y-105910124D01*
X235348933Y-105714946D01*
X235511980Y-105655412D01*
X235836674Y-105591113D01*
X236178372Y-105577863D01*
X236498626Y-105615916D01*
X236758986Y-105705531D01*
X236879857Y-105778710D01*
X237165127Y-106029346D01*
X237398988Y-106348697D01*
X237558051Y-106707436D01*
X237596664Y-106855167D01*
X237651879Y-107221608D01*
X237668539Y-107618043D01*
X237662589Y-107718639D01*
X237645947Y-107999986D01*
X237583405Y-108322954D01*
G37*
%TD*%
M02*
