M48
; DRILL file {KiCad (6.0.4)} date Wed May  4 21:07:06 2022
; FORMAT={-:-/ absolute / inch / decimal}
; #@! TF.CreationDate,2022-05-04T21:07:06-03:00
; #@! TF.GenerationSoftware,Kicad,Pcbnew,(6.0.4)
; #@! TF.FileFunction,Plated,1,2,PTH
FMAT,2
INCH
; #@! TA.AperFunction,Plated,PTH,ViaDrill
T1C0.0157
; #@! TA.AperFunction,Plated,PTH,ComponentDrill
T2C0.0394
; #@! TA.AperFunction,Plated,PTH,ComponentDrill
T3C0.0512
%
G90
G05
T1
X7.9134Y-3.8189
X7.9134Y-3.8976
X7.9134Y-3.9764
X7.9134Y-4.0551
X7.9134Y-4.1339
X7.9134Y-4.2126
X7.9134Y-4.2913
X7.9134Y-4.3701
X7.9134Y-4.4488
X7.9134Y-4.5276
X7.9134Y-4.6063
X7.9134Y-4.685
X7.9134Y-4.7638
X7.9921Y-3.7402
X7.9921Y-3.9764
X7.9921Y-4.0551
X7.9921Y-4.1339
X7.9921Y-4.2126
X7.9921Y-4.2913
X7.9921Y-4.3701
X7.9921Y-4.4488
X7.9921Y-4.5276
X7.9921Y-4.6063
X7.9921Y-4.8425
X8.0709Y-3.7402
X8.0709Y-3.8976
X8.0709Y-4.5276
X8.0709Y-4.6063
X8.0709Y-4.8425
X8.1496Y-3.7402
X8.1496Y-4.685
X8.1496Y-4.7638
X8.1496Y-4.8425
X8.2283Y-4.1339
X8.2283Y-4.2126
X8.2283Y-4.2913
X8.2283Y-4.3701
X8.2283Y-4.4488
X8.2283Y-4.5276
X8.2283Y-4.7638
X8.2283Y-4.8425
X8.2677Y-4.6063
X8.3071Y-3.9764
X8.3071Y-4.2126
X8.3071Y-4.2913
X8.3071Y-4.3701
X8.3071Y-4.4488
X8.3071Y-4.5276
X8.3071Y-4.8425
X8.3642Y-4.5571
X8.3858Y-3.9764
X8.3858Y-4.0551
X8.3858Y-4.2913
X8.3858Y-4.3701
X8.3858Y-4.4488
X8.4646Y-3.9764
X8.4646Y-4.0551
X8.5433Y-3.9764
X8.5433Y-4.0551
X8.622Y-3.9764
X8.622Y-4.0551
X8.622Y-4.1339
X8.622Y-4.2126
X8.7008Y-3.9764
X8.7008Y-4.0551
X8.7008Y-4.1339
X8.7008Y-4.2126
X8.7008Y-4.2913
X8.7008Y-4.3701
X8.7303Y-4.5571
X8.7795Y-3.9764
X8.7795Y-4.0551
X8.7795Y-4.1339
X8.7795Y-4.2126
X8.8583Y-3.9764
X8.8583Y-4.0551
X8.8583Y-4.3701
X8.937Y-3.9764
X8.937Y-4.0551
X8.937Y-4.3701
X9.0551Y-3.9764
X9.0551Y-4.0551
X9.0551Y-4.1339
X9.0906Y-4.5182
X9.1063Y-4.5571
X9.1339Y-3.9764
X9.1339Y-4.0551
X9.1339Y-4.3701
X9.2126Y-3.9764
X9.2126Y-4.0551
X9.2126Y-4.3701
X9.2913Y-3.9764
X9.2913Y-4.0551
X9.2913Y-4.1339
X9.2913Y-4.2126
X9.3701Y-3.9764
X9.3701Y-4.0551
X9.3701Y-4.1339
X9.3701Y-4.2126
X9.3701Y-4.2913
X9.3701Y-4.3701
X9.3701Y-4.3701
X9.376Y-4.5571
X9.4488Y-3.9764
X9.4488Y-4.0551
X9.4882Y-4.3701
X9.5276Y-3.9764
X9.5276Y-4.0551
X9.5669Y-4.3701
X9.5669Y-4.3701
X9.685Y-3.9764
X9.685Y-4.0551
X9.685Y-4.1339
X9.685Y-4.2126
X9.7362Y-4.5182
X9.7598Y-4.5571
X9.7638Y-3.9764
X9.7638Y-4.0551
X9.8031Y-4.3701
X9.8425Y-3.9764
X9.8425Y-4.0551
X9.8819Y-4.3701
X9.9213Y-3.9764
X9.9213Y-4.0551
X9.9213Y-4.1339
X9.9213Y-4.2126
X10.0Y-3.9764
X10.0Y-3.9764
X10.0Y-4.0551
X10.0Y-4.1339
X10.0Y-4.2126
X10.0Y-4.2913
X10.0Y-4.2913
X10.0Y-4.3701
X10.0217Y-4.5571
X10.0787Y-4.0551
X10.0787Y-4.1339
X10.0787Y-4.2126
X10.1575Y-3.7402
X10.1575Y-3.8189
X10.1575Y-3.9764
X10.1575Y-4.3701
X10.2362Y-3.7402
X10.2362Y-3.8976
X10.2362Y-3.9764
X10.2362Y-4.0551
X10.2362Y-4.3701
X10.315Y-3.7402
X10.315Y-3.9764
X10.315Y-4.0551
X10.315Y-4.1339
X10.315Y-4.2126
X10.3819Y-4.5182
X10.3937Y-3.8189
X10.3937Y-3.8976
X10.3937Y-3.9764
X10.3937Y-4.0551
X10.3937Y-4.1339
X10.3937Y-4.2126
T2
X8.2035Y-3.7886
X8.2035Y-3.8886
X8.3035Y-3.7886
X8.3035Y-3.8886
X8.4035Y-3.7886
X8.4035Y-3.8886
X8.5035Y-3.7886
X8.5035Y-3.8886
X8.5413Y-4.7274
X8.6035Y-3.7886
X8.6035Y-3.8886
X8.6398Y-4.7274
X8.7035Y-3.7886
X8.7035Y-3.8886
X8.8035Y-3.7886
X8.8035Y-3.8886
X8.9035Y-3.7886
X8.9035Y-3.8886
X9.0035Y-3.7886
X9.0035Y-3.8886
X9.1035Y-3.7886
X9.1035Y-3.8886
X9.187Y-4.7274
X9.2035Y-3.7886
X9.2035Y-3.8886
X9.2854Y-4.7274
X9.3035Y-3.7886
X9.3035Y-3.8886
X9.4035Y-3.7886
X9.4035Y-3.8886
X9.5035Y-3.7886
X9.5035Y-3.8886
X9.6035Y-3.7886
X9.6035Y-3.8886
X9.7035Y-3.7886
X9.7035Y-3.8886
X9.8035Y-3.7886
X9.8035Y-3.8886
X9.8327Y-4.7274
X9.9035Y-3.7886
X9.9035Y-3.8886
X9.9311Y-4.7274
X10.0035Y-3.7886
X10.0035Y-3.8886
X10.1035Y-3.7886
X10.1035Y-3.8886
T3
X8.0685Y-4.1913
X8.0685Y-4.3913
T0
M30
