%TF.GenerationSoftware,KiCad,Pcbnew,(6.0.4)*%
%TF.CreationDate,2022-05-04T21:07:06-03:00*%
%TF.ProjectId,SilentFanZeroHAT,53696c65-6e74-4466-916e-5a65726f4841,rev?*%
%TF.SameCoordinates,Original*%
%TF.FileFunction,Legend,Top*%
%TF.FilePolarity,Positive*%
%FSLAX46Y46*%
G04 Gerber Fmt 4.6, Leading zero omitted, Abs format (unit mm)*
G04 Created by KiCad (PCBNEW (6.0.4)) date 2022-05-04 21:07:06*
%MOMM*%
%LPD*%
G01*
G04 APERTURE LIST*
%ADD10C,0.150000*%
%ADD11C,0.120000*%
G04 APERTURE END LIST*
D10*
X231500000Y-111600000D02*
X231700000Y-111400000D01*
X248100000Y-111800000D02*
X247900000Y-111600000D01*
X248100000Y-111400000D02*
X248100000Y-111800000D01*
X249200000Y-111600000D02*
X247900000Y-111600000D01*
X247900000Y-111600000D02*
X248100000Y-111400000D01*
X232800000Y-111600000D02*
X231500000Y-111600000D01*
X231700000Y-111400000D02*
X231700000Y-111800000D01*
X210000000Y-102600000D02*
X210000000Y-104900000D01*
X231700000Y-111800000D02*
X231500000Y-111600000D01*
%TO.C,D4*%
X228111904Y-123702380D02*
X228111904Y-122702380D01*
X228350000Y-122702380D01*
X228492857Y-122750000D01*
X228588095Y-122845238D01*
X228635714Y-122940476D01*
X228683333Y-123130952D01*
X228683333Y-123273809D01*
X228635714Y-123464285D01*
X228588095Y-123559523D01*
X228492857Y-123654761D01*
X228350000Y-123702380D01*
X228111904Y-123702380D01*
X229540476Y-123035714D02*
X229540476Y-123702380D01*
X229302380Y-122654761D02*
X229064285Y-123369047D01*
X229683333Y-123369047D01*
%TO.C,D2*%
X210902380Y-120813095D02*
X209902380Y-120813095D01*
X209902380Y-120575000D01*
X209950000Y-120432142D01*
X210045238Y-120336904D01*
X210140476Y-120289285D01*
X210330952Y-120241666D01*
X210473809Y-120241666D01*
X210664285Y-120289285D01*
X210759523Y-120336904D01*
X210854761Y-120432142D01*
X210902380Y-120575000D01*
X210902380Y-120813095D01*
X209997619Y-119860714D02*
X209950000Y-119813095D01*
X209902380Y-119717857D01*
X209902380Y-119479761D01*
X209950000Y-119384523D01*
X209997619Y-119336904D01*
X210092857Y-119289285D01*
X210188095Y-119289285D01*
X210330952Y-119336904D01*
X210902380Y-119908333D01*
X210902380Y-119289285D01*
%TO.C,J3*%
X234216666Y-121552380D02*
X234216666Y-122266666D01*
X234169047Y-122409523D01*
X234073809Y-122504761D01*
X233930952Y-122552380D01*
X233835714Y-122552380D01*
X234597619Y-121552380D02*
X235216666Y-121552380D01*
X234883333Y-121933333D01*
X235026190Y-121933333D01*
X235121428Y-121980952D01*
X235169047Y-122028571D01*
X235216666Y-122123809D01*
X235216666Y-122361904D01*
X235169047Y-122457142D01*
X235121428Y-122504761D01*
X235026190Y-122552380D01*
X234740476Y-122552380D01*
X234645238Y-122504761D01*
X234597619Y-122457142D01*
%TO.C,R11*%
X258373214Y-113331904D02*
X258106547Y-112950952D01*
X257916071Y-113331904D02*
X257916071Y-112531904D01*
X258220833Y-112531904D01*
X258297023Y-112570000D01*
X258335119Y-112608095D01*
X258373214Y-112684285D01*
X258373214Y-112798571D01*
X258335119Y-112874761D01*
X258297023Y-112912857D01*
X258220833Y-112950952D01*
X257916071Y-112950952D01*
X259135119Y-113331904D02*
X258677976Y-113331904D01*
X258906547Y-113331904D02*
X258906547Y-112531904D01*
X258830357Y-112646190D01*
X258754166Y-112722380D01*
X258677976Y-112760476D01*
X259897023Y-113331904D02*
X259439880Y-113331904D01*
X259668452Y-113331904D02*
X259668452Y-112531904D01*
X259592261Y-112646190D01*
X259516071Y-112722380D01*
X259439880Y-112760476D01*
%TO.C,U1*%
X230800595Y-113252380D02*
X230800595Y-114061904D01*
X230848214Y-114157142D01*
X230895833Y-114204761D01*
X230991071Y-114252380D01*
X231181547Y-114252380D01*
X231276785Y-114204761D01*
X231324404Y-114157142D01*
X231372023Y-114061904D01*
X231372023Y-113252380D01*
X232372023Y-114252380D02*
X231800595Y-114252380D01*
X232086309Y-114252380D02*
X232086309Y-113252380D01*
X231991071Y-113395238D01*
X231895833Y-113490476D01*
X231800595Y-113538095D01*
%TO.C,U3*%
X263552380Y-115524404D02*
X264361904Y-115524404D01*
X264457142Y-115476785D01*
X264504761Y-115429166D01*
X264552380Y-115333928D01*
X264552380Y-115143452D01*
X264504761Y-115048214D01*
X264457142Y-115000595D01*
X264361904Y-114952976D01*
X263552380Y-114952976D01*
X263552380Y-114572023D02*
X263552380Y-113952976D01*
X263933333Y-114286309D01*
X263933333Y-114143452D01*
X263980952Y-114048214D01*
X264028571Y-114000595D01*
X264123809Y-113952976D01*
X264361904Y-113952976D01*
X264457142Y-114000595D01*
X264504761Y-114048214D01*
X264552380Y-114143452D01*
X264552380Y-114429166D01*
X264504761Y-114524404D01*
X264457142Y-114572023D01*
%TO.C,R12*%
X263652380Y-111142857D02*
X263176190Y-111476190D01*
X263652380Y-111714285D02*
X262652380Y-111714285D01*
X262652380Y-111333333D01*
X262700000Y-111238095D01*
X262747619Y-111190476D01*
X262842857Y-111142857D01*
X262985714Y-111142857D01*
X263080952Y-111190476D01*
X263128571Y-111238095D01*
X263176190Y-111333333D01*
X263176190Y-111714285D01*
X263652380Y-110190476D02*
X263652380Y-110761904D01*
X263652380Y-110476190D02*
X262652380Y-110476190D01*
X262795238Y-110571428D01*
X262890476Y-110666666D01*
X262938095Y-110761904D01*
X262747619Y-109809523D02*
X262700000Y-109761904D01*
X262652380Y-109666666D01*
X262652380Y-109428571D01*
X262700000Y-109333333D01*
X262747619Y-109285714D01*
X262842857Y-109238095D01*
X262938095Y-109238095D01*
X263080952Y-109285714D01*
X263652380Y-109857142D01*
X263652380Y-109238095D01*
%TO.C,R2*%
X213352380Y-112466666D02*
X212876190Y-112800000D01*
X213352380Y-113038095D02*
X212352380Y-113038095D01*
X212352380Y-112657142D01*
X212400000Y-112561904D01*
X212447619Y-112514285D01*
X212542857Y-112466666D01*
X212685714Y-112466666D01*
X212780952Y-112514285D01*
X212828571Y-112561904D01*
X212876190Y-112657142D01*
X212876190Y-113038095D01*
X212447619Y-112085714D02*
X212400000Y-112038095D01*
X212352380Y-111942857D01*
X212352380Y-111704761D01*
X212400000Y-111609523D01*
X212447619Y-111561904D01*
X212542857Y-111514285D01*
X212638095Y-111514285D01*
X212780952Y-111561904D01*
X213352380Y-112133333D01*
X213352380Y-111514285D01*
%TO.C,D1*%
X222661904Y-123102380D02*
X222661904Y-122102380D01*
X222900000Y-122102380D01*
X223042857Y-122150000D01*
X223138095Y-122245238D01*
X223185714Y-122340476D01*
X223233333Y-122530952D01*
X223233333Y-122673809D01*
X223185714Y-122864285D01*
X223138095Y-122959523D01*
X223042857Y-123054761D01*
X222900000Y-123102380D01*
X222661904Y-123102380D01*
X224185714Y-123102380D02*
X223614285Y-123102380D01*
X223900000Y-123102380D02*
X223900000Y-122102380D01*
X223804761Y-122245238D01*
X223709523Y-122340476D01*
X223614285Y-122388095D01*
%TO.C,L1*%
X214433333Y-102602380D02*
X213957142Y-102602380D01*
X213957142Y-101602380D01*
X215290476Y-102602380D02*
X214719047Y-102602380D01*
X215004761Y-102602380D02*
X215004761Y-101602380D01*
X214909523Y-101745238D01*
X214814285Y-101840476D01*
X214719047Y-101888095D01*
%TO.C,Q1*%
X221654761Y-117297619D02*
X221559523Y-117250000D01*
X221464285Y-117154761D01*
X221321428Y-117011904D01*
X221226190Y-116964285D01*
X221130952Y-116964285D01*
X221178571Y-117202380D02*
X221083333Y-117154761D01*
X220988095Y-117059523D01*
X220940476Y-116869047D01*
X220940476Y-116535714D01*
X220988095Y-116345238D01*
X221083333Y-116250000D01*
X221178571Y-116202380D01*
X221369047Y-116202380D01*
X221464285Y-116250000D01*
X221559523Y-116345238D01*
X221607142Y-116535714D01*
X221607142Y-116869047D01*
X221559523Y-117059523D01*
X221464285Y-117154761D01*
X221369047Y-117202380D01*
X221178571Y-117202380D01*
X222559523Y-117202380D02*
X221988095Y-117202380D01*
X222273809Y-117202380D02*
X222273809Y-116202380D01*
X222178571Y-116345238D01*
X222083333Y-116440476D01*
X221988095Y-116488095D01*
%TO.C,R8*%
X244402380Y-110666666D02*
X243926190Y-111000000D01*
X244402380Y-111238095D02*
X243402380Y-111238095D01*
X243402380Y-110857142D01*
X243450000Y-110761904D01*
X243497619Y-110714285D01*
X243592857Y-110666666D01*
X243735714Y-110666666D01*
X243830952Y-110714285D01*
X243878571Y-110761904D01*
X243926190Y-110857142D01*
X243926190Y-111238095D01*
X243830952Y-110095238D02*
X243783333Y-110190476D01*
X243735714Y-110238095D01*
X243640476Y-110285714D01*
X243592857Y-110285714D01*
X243497619Y-110238095D01*
X243450000Y-110190476D01*
X243402380Y-110095238D01*
X243402380Y-109904761D01*
X243450000Y-109809523D01*
X243497619Y-109761904D01*
X243592857Y-109714285D01*
X243640476Y-109714285D01*
X243735714Y-109761904D01*
X243783333Y-109809523D01*
X243830952Y-109904761D01*
X243830952Y-110095238D01*
X243878571Y-110190476D01*
X243926190Y-110238095D01*
X244021428Y-110285714D01*
X244211904Y-110285714D01*
X244307142Y-110238095D01*
X244354761Y-110190476D01*
X244402380Y-110095238D01*
X244402380Y-109904761D01*
X244354761Y-109809523D01*
X244307142Y-109761904D01*
X244211904Y-109714285D01*
X244021428Y-109714285D01*
X243926190Y-109761904D01*
X243878571Y-109809523D01*
X243830952Y-109904761D01*
%TO.C,L3*%
X247183333Y-102602380D02*
X246707142Y-102602380D01*
X246707142Y-101602380D01*
X247421428Y-101602380D02*
X248040476Y-101602380D01*
X247707142Y-101983333D01*
X247850000Y-101983333D01*
X247945238Y-102030952D01*
X247992857Y-102078571D01*
X248040476Y-102173809D01*
X248040476Y-102411904D01*
X247992857Y-102507142D01*
X247945238Y-102554761D01*
X247850000Y-102602380D01*
X247564285Y-102602380D01*
X247469047Y-102554761D01*
X247421428Y-102507142D01*
%TO.C,R5*%
X243482380Y-120266666D02*
X243006190Y-120600000D01*
X243482380Y-120838095D02*
X242482380Y-120838095D01*
X242482380Y-120457142D01*
X242530000Y-120361904D01*
X242577619Y-120314285D01*
X242672857Y-120266666D01*
X242815714Y-120266666D01*
X242910952Y-120314285D01*
X242958571Y-120361904D01*
X243006190Y-120457142D01*
X243006190Y-120838095D01*
X242482380Y-119361904D02*
X242482380Y-119838095D01*
X242958571Y-119885714D01*
X242910952Y-119838095D01*
X242863333Y-119742857D01*
X242863333Y-119504761D01*
X242910952Y-119409523D01*
X242958571Y-119361904D01*
X243053809Y-119314285D01*
X243291904Y-119314285D01*
X243387142Y-119361904D01*
X243434761Y-119409523D01*
X243482380Y-119504761D01*
X243482380Y-119742857D01*
X243434761Y-119838095D01*
X243387142Y-119885714D01*
%TO.C,Q2*%
X237904761Y-117297619D02*
X237809523Y-117250000D01*
X237714285Y-117154761D01*
X237571428Y-117011904D01*
X237476190Y-116964285D01*
X237380952Y-116964285D01*
X237428571Y-117202380D02*
X237333333Y-117154761D01*
X237238095Y-117059523D01*
X237190476Y-116869047D01*
X237190476Y-116535714D01*
X237238095Y-116345238D01*
X237333333Y-116250000D01*
X237428571Y-116202380D01*
X237619047Y-116202380D01*
X237714285Y-116250000D01*
X237809523Y-116345238D01*
X237857142Y-116535714D01*
X237857142Y-116869047D01*
X237809523Y-117059523D01*
X237714285Y-117154761D01*
X237619047Y-117202380D01*
X237428571Y-117202380D01*
X238238095Y-116297619D02*
X238285714Y-116250000D01*
X238380952Y-116202380D01*
X238619047Y-116202380D01*
X238714285Y-116250000D01*
X238761904Y-116297619D01*
X238809523Y-116392857D01*
X238809523Y-116488095D01*
X238761904Y-116630952D01*
X238190476Y-117202380D01*
X238809523Y-117202380D01*
%TO.C,R4*%
X227952380Y-110666666D02*
X227476190Y-111000000D01*
X227952380Y-111238095D02*
X226952380Y-111238095D01*
X226952380Y-110857142D01*
X227000000Y-110761904D01*
X227047619Y-110714285D01*
X227142857Y-110666666D01*
X227285714Y-110666666D01*
X227380952Y-110714285D01*
X227428571Y-110761904D01*
X227476190Y-110857142D01*
X227476190Y-111238095D01*
X227285714Y-109809523D02*
X227952380Y-109809523D01*
X226904761Y-110047619D02*
X227619047Y-110285714D01*
X227619047Y-109666666D01*
%TO.C,C6*%
X246783333Y-106707142D02*
X246735714Y-106754761D01*
X246592857Y-106802380D01*
X246497619Y-106802380D01*
X246354761Y-106754761D01*
X246259523Y-106659523D01*
X246211904Y-106564285D01*
X246164285Y-106373809D01*
X246164285Y-106230952D01*
X246211904Y-106040476D01*
X246259523Y-105945238D01*
X246354761Y-105850000D01*
X246497619Y-105802380D01*
X246592857Y-105802380D01*
X246735714Y-105850000D01*
X246783333Y-105897619D01*
X247640476Y-105802380D02*
X247450000Y-105802380D01*
X247354761Y-105850000D01*
X247307142Y-105897619D01*
X247211904Y-106040476D01*
X247164285Y-106230952D01*
X247164285Y-106611904D01*
X247211904Y-106707142D01*
X247259523Y-106754761D01*
X247354761Y-106802380D01*
X247545238Y-106802380D01*
X247640476Y-106754761D01*
X247688095Y-106707142D01*
X247735714Y-106611904D01*
X247735714Y-106373809D01*
X247688095Y-106278571D01*
X247640476Y-106230952D01*
X247545238Y-106183333D01*
X247354761Y-106183333D01*
X247259523Y-106230952D01*
X247211904Y-106278571D01*
X247164285Y-106373809D01*
%TO.C,J2*%
X217816666Y-121577380D02*
X217816666Y-122291666D01*
X217769047Y-122434523D01*
X217673809Y-122529761D01*
X217530952Y-122577380D01*
X217435714Y-122577380D01*
X218245238Y-121672619D02*
X218292857Y-121625000D01*
X218388095Y-121577380D01*
X218626190Y-121577380D01*
X218721428Y-121625000D01*
X218769047Y-121672619D01*
X218816666Y-121767857D01*
X218816666Y-121863095D01*
X218769047Y-122005952D01*
X218197619Y-122577380D01*
X218816666Y-122577380D01*
%TO.C,F1*%
X206006666Y-100108571D02*
X205673333Y-100108571D01*
X205673333Y-100632380D02*
X205673333Y-99632380D01*
X206149523Y-99632380D01*
X207054285Y-100632380D02*
X206482857Y-100632380D01*
X206768571Y-100632380D02*
X206768571Y-99632380D01*
X206673333Y-99775238D01*
X206578095Y-99870476D01*
X206482857Y-99918095D01*
%TO.C,C4*%
X230633333Y-106557142D02*
X230585714Y-106604761D01*
X230442857Y-106652380D01*
X230347619Y-106652380D01*
X230204761Y-106604761D01*
X230109523Y-106509523D01*
X230061904Y-106414285D01*
X230014285Y-106223809D01*
X230014285Y-106080952D01*
X230061904Y-105890476D01*
X230109523Y-105795238D01*
X230204761Y-105700000D01*
X230347619Y-105652380D01*
X230442857Y-105652380D01*
X230585714Y-105700000D01*
X230633333Y-105747619D01*
X231490476Y-105985714D02*
X231490476Y-106652380D01*
X231252380Y-105604761D02*
X231014285Y-106319047D01*
X231633333Y-106319047D01*
%TO.C,J4*%
X250716666Y-121577380D02*
X250716666Y-122291666D01*
X250669047Y-122434523D01*
X250573809Y-122529761D01*
X250430952Y-122577380D01*
X250335714Y-122577380D01*
X251621428Y-121910714D02*
X251621428Y-122577380D01*
X251383333Y-121529761D02*
X251145238Y-122244047D01*
X251764285Y-122244047D01*
%TO.C,C1*%
X218033333Y-113487142D02*
X217985714Y-113534761D01*
X217842857Y-113582380D01*
X217747619Y-113582380D01*
X217604761Y-113534761D01*
X217509523Y-113439523D01*
X217461904Y-113344285D01*
X217414285Y-113153809D01*
X217414285Y-113010952D01*
X217461904Y-112820476D01*
X217509523Y-112725238D01*
X217604761Y-112630000D01*
X217747619Y-112582380D01*
X217842857Y-112582380D01*
X217985714Y-112630000D01*
X218033333Y-112677619D01*
X218985714Y-113582380D02*
X218414285Y-113582380D01*
X218700000Y-113582380D02*
X218700000Y-112582380D01*
X218604761Y-112725238D01*
X218509523Y-112820476D01*
X218414285Y-112868095D01*
%TO.C,L2*%
X230783333Y-102602380D02*
X230307142Y-102602380D01*
X230307142Y-101602380D01*
X231069047Y-101697619D02*
X231116666Y-101650000D01*
X231211904Y-101602380D01*
X231450000Y-101602380D01*
X231545238Y-101650000D01*
X231592857Y-101697619D01*
X231640476Y-101792857D01*
X231640476Y-101888095D01*
X231592857Y-102030952D01*
X231021428Y-102602380D01*
X231640476Y-102602380D01*
%TO.C,C5*%
X250833333Y-113487142D02*
X250785714Y-113534761D01*
X250642857Y-113582380D01*
X250547619Y-113582380D01*
X250404761Y-113534761D01*
X250309523Y-113439523D01*
X250261904Y-113344285D01*
X250214285Y-113153809D01*
X250214285Y-113010952D01*
X250261904Y-112820476D01*
X250309523Y-112725238D01*
X250404761Y-112630000D01*
X250547619Y-112582380D01*
X250642857Y-112582380D01*
X250785714Y-112630000D01*
X250833333Y-112677619D01*
X251738095Y-112582380D02*
X251261904Y-112582380D01*
X251214285Y-113058571D01*
X251261904Y-113010952D01*
X251357142Y-112963333D01*
X251595238Y-112963333D01*
X251690476Y-113010952D01*
X251738095Y-113058571D01*
X251785714Y-113153809D01*
X251785714Y-113391904D01*
X251738095Y-113487142D01*
X251690476Y-113534761D01*
X251595238Y-113582380D01*
X251357142Y-113582380D01*
X251261904Y-113534761D01*
X251214285Y-113487142D01*
%TO.C,R7*%
X242354166Y-113331904D02*
X242087500Y-112950952D01*
X241897023Y-113331904D02*
X241897023Y-112531904D01*
X242201785Y-112531904D01*
X242277976Y-112570000D01*
X242316071Y-112608095D01*
X242354166Y-112684285D01*
X242354166Y-112798571D01*
X242316071Y-112874761D01*
X242277976Y-112912857D01*
X242201785Y-112950952D01*
X241897023Y-112950952D01*
X242620833Y-112531904D02*
X243154166Y-112531904D01*
X242811309Y-113331904D01*
%TO.C,J1*%
X204666666Y-108502380D02*
X204666666Y-109216666D01*
X204619047Y-109359523D01*
X204523809Y-109454761D01*
X204380952Y-109502380D01*
X204285714Y-109502380D01*
X205666666Y-109502380D02*
X205095238Y-109502380D01*
X205380952Y-109502380D02*
X205380952Y-108502380D01*
X205285714Y-108645238D01*
X205190476Y-108740476D01*
X205095238Y-108788095D01*
%TO.C,R10*%
X250057142Y-112027380D02*
X249723809Y-111551190D01*
X249485714Y-112027380D02*
X249485714Y-111027380D01*
X249866666Y-111027380D01*
X249961904Y-111075000D01*
X250009523Y-111122619D01*
X250057142Y-111217857D01*
X250057142Y-111360714D01*
X250009523Y-111455952D01*
X249961904Y-111503571D01*
X249866666Y-111551190D01*
X249485714Y-111551190D01*
X251009523Y-112027380D02*
X250438095Y-112027380D01*
X250723809Y-112027380D02*
X250723809Y-111027380D01*
X250628571Y-111170238D01*
X250533333Y-111265476D01*
X250438095Y-111313095D01*
X251628571Y-111027380D02*
X251723809Y-111027380D01*
X251819047Y-111075000D01*
X251866666Y-111122619D01*
X251914285Y-111217857D01*
X251961904Y-111408333D01*
X251961904Y-111646428D01*
X251914285Y-111836904D01*
X251866666Y-111932142D01*
X251819047Y-111979761D01*
X251723809Y-112027380D01*
X251628571Y-112027380D01*
X251533333Y-111979761D01*
X251485714Y-111932142D01*
X251438095Y-111836904D01*
X251390476Y-111646428D01*
X251390476Y-111408333D01*
X251438095Y-111217857D01*
X251485714Y-111122619D01*
X251533333Y-111075000D01*
X251628571Y-111027380D01*
%TO.C,C2*%
X213257142Y-109366666D02*
X213304761Y-109414285D01*
X213352380Y-109557142D01*
X213352380Y-109652380D01*
X213304761Y-109795238D01*
X213209523Y-109890476D01*
X213114285Y-109938095D01*
X212923809Y-109985714D01*
X212780952Y-109985714D01*
X212590476Y-109938095D01*
X212495238Y-109890476D01*
X212400000Y-109795238D01*
X212352380Y-109652380D01*
X212352380Y-109557142D01*
X212400000Y-109414285D01*
X212447619Y-109366666D01*
X212447619Y-108985714D02*
X212400000Y-108938095D01*
X212352380Y-108842857D01*
X212352380Y-108604761D01*
X212400000Y-108509523D01*
X212447619Y-108461904D01*
X212542857Y-108414285D01*
X212638095Y-108414285D01*
X212780952Y-108461904D01*
X213352380Y-109033333D01*
X213352380Y-108414285D01*
%TO.C,R1*%
X227082380Y-120266666D02*
X226606190Y-120600000D01*
X227082380Y-120838095D02*
X226082380Y-120838095D01*
X226082380Y-120457142D01*
X226130000Y-120361904D01*
X226177619Y-120314285D01*
X226272857Y-120266666D01*
X226415714Y-120266666D01*
X226510952Y-120314285D01*
X226558571Y-120361904D01*
X226606190Y-120457142D01*
X226606190Y-120838095D01*
X227082380Y-119314285D02*
X227082380Y-119885714D01*
X227082380Y-119600000D02*
X226082380Y-119600000D01*
X226225238Y-119695238D01*
X226320476Y-119790476D01*
X226368095Y-119885714D01*
%TO.C,D3*%
X239061904Y-123102380D02*
X239061904Y-122102380D01*
X239300000Y-122102380D01*
X239442857Y-122150000D01*
X239538095Y-122245238D01*
X239585714Y-122340476D01*
X239633333Y-122530952D01*
X239633333Y-122673809D01*
X239585714Y-122864285D01*
X239538095Y-122959523D01*
X239442857Y-123054761D01*
X239300000Y-123102380D01*
X239061904Y-123102380D01*
X239966666Y-122102380D02*
X240585714Y-122102380D01*
X240252380Y-122483333D01*
X240395238Y-122483333D01*
X240490476Y-122530952D01*
X240538095Y-122578571D01*
X240585714Y-122673809D01*
X240585714Y-122911904D01*
X240538095Y-123007142D01*
X240490476Y-123054761D01*
X240395238Y-123102380D01*
X240109523Y-123102380D01*
X240014285Y-123054761D01*
X239966666Y-123007142D01*
%TO.C,R6*%
X233733333Y-112052380D02*
X233400000Y-111576190D01*
X233161904Y-112052380D02*
X233161904Y-111052380D01*
X233542857Y-111052380D01*
X233638095Y-111100000D01*
X233685714Y-111147619D01*
X233733333Y-111242857D01*
X233733333Y-111385714D01*
X233685714Y-111480952D01*
X233638095Y-111528571D01*
X233542857Y-111576190D01*
X233161904Y-111576190D01*
X234590476Y-111052380D02*
X234400000Y-111052380D01*
X234304761Y-111100000D01*
X234257142Y-111147619D01*
X234161904Y-111290476D01*
X234114285Y-111480952D01*
X234114285Y-111861904D01*
X234161904Y-111957142D01*
X234209523Y-112004761D01*
X234304761Y-112052380D01*
X234495238Y-112052380D01*
X234590476Y-112004761D01*
X234638095Y-111957142D01*
X234685714Y-111861904D01*
X234685714Y-111623809D01*
X234638095Y-111528571D01*
X234590476Y-111480952D01*
X234495238Y-111433333D01*
X234304761Y-111433333D01*
X234209523Y-111480952D01*
X234161904Y-111528571D01*
X234114285Y-111623809D01*
%TO.C,R9*%
X257833333Y-118222380D02*
X257500000Y-117746190D01*
X257261904Y-118222380D02*
X257261904Y-117222380D01*
X257642857Y-117222380D01*
X257738095Y-117270000D01*
X257785714Y-117317619D01*
X257833333Y-117412857D01*
X257833333Y-117555714D01*
X257785714Y-117650952D01*
X257738095Y-117698571D01*
X257642857Y-117746190D01*
X257261904Y-117746190D01*
X258309523Y-118222380D02*
X258500000Y-118222380D01*
X258595238Y-118174761D01*
X258642857Y-118127142D01*
X258738095Y-117984285D01*
X258785714Y-117793809D01*
X258785714Y-117412857D01*
X258738095Y-117317619D01*
X258690476Y-117270000D01*
X258595238Y-117222380D01*
X258404761Y-117222380D01*
X258309523Y-117270000D01*
X258261904Y-117317619D01*
X258214285Y-117412857D01*
X258214285Y-117650952D01*
X258261904Y-117746190D01*
X258309523Y-117793809D01*
X258404761Y-117841428D01*
X258595238Y-117841428D01*
X258690476Y-117793809D01*
X258738095Y-117746190D01*
X258785714Y-117650952D01*
%TO.C,Q3*%
X254404761Y-117297619D02*
X254309523Y-117250000D01*
X254214285Y-117154761D01*
X254071428Y-117011904D01*
X253976190Y-116964285D01*
X253880952Y-116964285D01*
X253928571Y-117202380D02*
X253833333Y-117154761D01*
X253738095Y-117059523D01*
X253690476Y-116869047D01*
X253690476Y-116535714D01*
X253738095Y-116345238D01*
X253833333Y-116250000D01*
X253928571Y-116202380D01*
X254119047Y-116202380D01*
X254214285Y-116250000D01*
X254309523Y-116345238D01*
X254357142Y-116535714D01*
X254357142Y-116869047D01*
X254309523Y-117059523D01*
X254214285Y-117154761D01*
X254119047Y-117202380D01*
X253928571Y-117202380D01*
X254690476Y-116202380D02*
X255309523Y-116202380D01*
X254976190Y-116583333D01*
X255119047Y-116583333D01*
X255214285Y-116630952D01*
X255261904Y-116678571D01*
X255309523Y-116773809D01*
X255309523Y-117011904D01*
X255261904Y-117107142D01*
X255214285Y-117154761D01*
X255119047Y-117202380D01*
X254833333Y-117202380D01*
X254738095Y-117154761D01*
X254690476Y-117107142D01*
%TO.C,C3*%
X234433333Y-113487142D02*
X234385714Y-113534761D01*
X234242857Y-113582380D01*
X234147619Y-113582380D01*
X234004761Y-113534761D01*
X233909523Y-113439523D01*
X233861904Y-113344285D01*
X233814285Y-113153809D01*
X233814285Y-113010952D01*
X233861904Y-112820476D01*
X233909523Y-112725238D01*
X234004761Y-112630000D01*
X234147619Y-112582380D01*
X234242857Y-112582380D01*
X234385714Y-112630000D01*
X234433333Y-112677619D01*
X234766666Y-112582380D02*
X235385714Y-112582380D01*
X235052380Y-112963333D01*
X235195238Y-112963333D01*
X235290476Y-113010952D01*
X235338095Y-113058571D01*
X235385714Y-113153809D01*
X235385714Y-113391904D01*
X235338095Y-113487142D01*
X235290476Y-113534761D01*
X235195238Y-113582380D01*
X234909523Y-113582380D01*
X234814285Y-113534761D01*
X234766666Y-113487142D01*
%TO.C,U2*%
X247152380Y-115524404D02*
X247961904Y-115524404D01*
X248057142Y-115476785D01*
X248104761Y-115429166D01*
X248152380Y-115333928D01*
X248152380Y-115143452D01*
X248104761Y-115048214D01*
X248057142Y-115000595D01*
X247961904Y-114952976D01*
X247152380Y-114952976D01*
X247247619Y-114524404D02*
X247200000Y-114476785D01*
X247152380Y-114381547D01*
X247152380Y-114143452D01*
X247200000Y-114048214D01*
X247247619Y-114000595D01*
X247342857Y-113952976D01*
X247438095Y-113952976D01*
X247580952Y-114000595D01*
X248152380Y-114572023D01*
X248152380Y-113952976D01*
%TO.C,D5*%
X255461904Y-123102380D02*
X255461904Y-122102380D01*
X255700000Y-122102380D01*
X255842857Y-122150000D01*
X255938095Y-122245238D01*
X255985714Y-122340476D01*
X256033333Y-122530952D01*
X256033333Y-122673809D01*
X255985714Y-122864285D01*
X255938095Y-122959523D01*
X255842857Y-123054761D01*
X255700000Y-123102380D01*
X255461904Y-123102380D01*
X256938095Y-122102380D02*
X256461904Y-122102380D01*
X256414285Y-122578571D01*
X256461904Y-122530952D01*
X256557142Y-122483333D01*
X256795238Y-122483333D01*
X256890476Y-122530952D01*
X256938095Y-122578571D01*
X256985714Y-122673809D01*
X256985714Y-122911904D01*
X256938095Y-123007142D01*
X256890476Y-123054761D01*
X256795238Y-123102380D01*
X256557142Y-123102380D01*
X256461904Y-123054761D01*
X256414285Y-123007142D01*
%TO.C,R3*%
X226116666Y-113331904D02*
X225850000Y-112950952D01*
X225659523Y-113331904D02*
X225659523Y-112531904D01*
X225964285Y-112531904D01*
X226040476Y-112570000D01*
X226078571Y-112608095D01*
X226116666Y-112684285D01*
X226116666Y-112798571D01*
X226078571Y-112874761D01*
X226040476Y-112912857D01*
X225964285Y-112950952D01*
X225659523Y-112950952D01*
X226383333Y-112531904D02*
X226878571Y-112531904D01*
X226611904Y-112836666D01*
X226726190Y-112836666D01*
X226802380Y-112874761D01*
X226840476Y-112912857D01*
X226878571Y-112989047D01*
X226878571Y-113179523D01*
X226840476Y-113255714D01*
X226802380Y-113293809D01*
X226726190Y-113331904D01*
X226497619Y-113331904D01*
X226421428Y-113293809D01*
X226383333Y-113255714D01*
%TO.C,D6*%
X244511904Y-123702380D02*
X244511904Y-122702380D01*
X244750000Y-122702380D01*
X244892857Y-122750000D01*
X244988095Y-122845238D01*
X245035714Y-122940476D01*
X245083333Y-123130952D01*
X245083333Y-123273809D01*
X245035714Y-123464285D01*
X244988095Y-123559523D01*
X244892857Y-123654761D01*
X244750000Y-123702380D01*
X244511904Y-123702380D01*
X245940476Y-122702380D02*
X245750000Y-122702380D01*
X245654761Y-122750000D01*
X245607142Y-122797619D01*
X245511904Y-122940476D01*
X245464285Y-123130952D01*
X245464285Y-123511904D01*
X245511904Y-123607142D01*
X245559523Y-123654761D01*
X245654761Y-123702380D01*
X245845238Y-123702380D01*
X245940476Y-123654761D01*
X245988095Y-123607142D01*
X246035714Y-123511904D01*
X246035714Y-123273809D01*
X245988095Y-123178571D01*
X245940476Y-123130952D01*
X245845238Y-123083333D01*
X245654761Y-123083333D01*
X245559523Y-123130952D01*
X245511904Y-123178571D01*
X245464285Y-123273809D01*
D11*
%TO.C,D4*%
X227850000Y-117875000D02*
X229850000Y-117875000D01*
X228850000Y-120425000D02*
X228300000Y-120425000D01*
X228850000Y-120425000D02*
X229400000Y-120425000D01*
X227850000Y-122325000D02*
X229850000Y-122325000D01*
X229850000Y-117875000D02*
X229850000Y-118425000D01*
X228850000Y-119825000D02*
X228450000Y-119825000D01*
X229850000Y-122325000D02*
X229850000Y-118425000D01*
X228850000Y-120425000D02*
X229250000Y-119825000D01*
X227850000Y-122325000D02*
X227850000Y-118425000D01*
X227850000Y-118425000D02*
X227850000Y-117875000D01*
X229850000Y-121175000D02*
X227850000Y-121175000D01*
X228850000Y-120825000D02*
X228850000Y-120425000D01*
X228850000Y-119325000D02*
X228850000Y-119825000D01*
X229250000Y-119825000D02*
X228850000Y-119825000D01*
X228450000Y-119825000D02*
X228850000Y-120425000D01*
%TO.C,D2*%
X212450000Y-119825000D02*
X212850000Y-119825000D01*
X211450000Y-117875000D02*
X213450000Y-117875000D01*
X213450000Y-117875000D02*
X213450000Y-118425000D01*
X212850000Y-119825000D02*
X212450000Y-120425000D01*
X213000000Y-120425000D02*
X211900000Y-120425000D01*
X211450000Y-122325000D02*
X213450000Y-122325000D01*
X212050000Y-119825000D02*
X212450000Y-119825000D01*
X211450000Y-122325000D02*
X211450000Y-118425000D01*
X212450000Y-119325000D02*
X212450000Y-119825000D01*
X213450000Y-122325000D02*
X213450000Y-118425000D01*
X211450000Y-118425000D02*
X211450000Y-117875000D01*
X212450000Y-120425000D02*
X212050000Y-119825000D01*
X212450000Y-120825000D02*
X212450000Y-120425000D01*
X211450000Y-122325000D02*
X213450000Y-122325000D01*
X213450000Y-122325000D02*
X213450000Y-121175000D01*
X213450000Y-121175000D02*
X211450000Y-121175000D01*
X211450000Y-121175000D02*
X211450000Y-122325000D01*
%TO.C,J3*%
X234100000Y-118375000D02*
X235100000Y-118375000D01*
X230500000Y-117325000D02*
X230500000Y-118575000D01*
X230800000Y-119875000D02*
X231550000Y-119875000D01*
X238400000Y-117625000D02*
X236600000Y-117625000D01*
X238400000Y-118375000D02*
X238400000Y-117625000D01*
X237650000Y-122825000D02*
X234600000Y-122825000D01*
X231550000Y-122825000D02*
X234600000Y-122825000D01*
X238410000Y-123585000D02*
X238410000Y-117615000D01*
X231550000Y-119875000D02*
X231550000Y-122825000D01*
X230800000Y-118375000D02*
X232600000Y-118375000D01*
X238410000Y-117615000D02*
X230790000Y-117615000D01*
X230790000Y-117615000D02*
X230790000Y-123585000D01*
X231750000Y-117325000D02*
X230500000Y-117325000D01*
X237650000Y-119875000D02*
X237650000Y-122825000D01*
X230790000Y-123585000D02*
X238410000Y-123585000D01*
X238400000Y-119875000D02*
X237650000Y-119875000D01*
X235100000Y-117625000D02*
X234100000Y-117625000D01*
X230800000Y-117625000D02*
X230800000Y-118375000D01*
X236600000Y-118375000D02*
X238400000Y-118375000D01*
X232600000Y-118375000D02*
X232600000Y-117625000D01*
X236600000Y-117625000D02*
X236600000Y-118375000D01*
X232600000Y-117625000D02*
X230800000Y-117625000D01*
X234100000Y-117625000D02*
X234100000Y-118375000D01*
X235100000Y-118375000D02*
X235100000Y-117625000D01*
%TO.C,R11*%
X258477500Y-114650242D02*
X258477500Y-115124758D01*
X259522500Y-114650242D02*
X259522500Y-115124758D01*
%TO.C,U1*%
X227340000Y-114762500D02*
X227340000Y-113962500D01*
X227340000Y-114762500D02*
X227340000Y-115562500D01*
X230460000Y-114762500D02*
X230460000Y-112962500D01*
X230460000Y-114762500D02*
X230460000Y-115562500D01*
%TO.C,U3*%
X263260000Y-114762500D02*
X263260000Y-112962500D01*
X260140000Y-114762500D02*
X260140000Y-113962500D01*
X260140000Y-114762500D02*
X260140000Y-115562500D01*
X263260000Y-114762500D02*
X263260000Y-115562500D01*
%TO.C,R12*%
X262222500Y-110737258D02*
X262222500Y-110262742D01*
X261177500Y-110737258D02*
X261177500Y-110262742D01*
%TO.C,R2*%
X214822500Y-112537258D02*
X214822500Y-112062742D01*
X213777500Y-112537258D02*
X213777500Y-112062742D01*
%TO.C,D1*%
X222440000Y-118415000D02*
X222440000Y-121780000D01*
X224360000Y-118415000D02*
X222440000Y-118415000D01*
X222440000Y-121780000D02*
X224360000Y-121780000D01*
X224360000Y-121780000D02*
X224360000Y-118415000D01*
X224350000Y-119750000D02*
X222450000Y-119750000D01*
%TO.C,L1*%
X226400000Y-112300000D02*
X215800000Y-112300000D01*
X215800000Y-104900000D02*
X215800000Y-101700000D01*
X226400000Y-109100000D02*
X226400000Y-112300000D01*
X215800000Y-112300000D02*
X215800000Y-109100000D01*
X226400000Y-101700000D02*
X226400000Y-104900000D01*
X215800000Y-101700000D02*
X226400000Y-101700000D01*
%TO.C,Q1*%
X221440000Y-115000000D02*
X221440000Y-115650000D01*
X221440000Y-115000000D02*
X221440000Y-114350000D01*
X224560000Y-115000000D02*
X224560000Y-113325000D01*
X224560000Y-115000000D02*
X224560000Y-115650000D01*
%TO.C,R8*%
X244777500Y-110737258D02*
X244777500Y-110262742D01*
X245822500Y-110737258D02*
X245822500Y-110262742D01*
%TO.C,L3*%
X259200000Y-112300000D02*
X248600000Y-112300000D01*
X248600000Y-104900000D02*
X248600000Y-101700000D01*
X259200000Y-109100000D02*
X259200000Y-112300000D01*
X248600000Y-112300000D02*
X248600000Y-109100000D01*
X248600000Y-101700000D02*
X259200000Y-101700000D01*
X259200000Y-101700000D02*
X259200000Y-104900000D01*
%TO.C,R5*%
X242122500Y-119862742D02*
X242122500Y-120337258D01*
X241077500Y-119862742D02*
X241077500Y-120337258D01*
%TO.C,Q2*%
X240960000Y-115000000D02*
X240960000Y-113325000D01*
X240960000Y-115000000D02*
X240960000Y-115650000D01*
X237840000Y-115000000D02*
X237840000Y-115650000D01*
X237840000Y-115000000D02*
X237840000Y-114350000D01*
%TO.C,R4*%
X229422500Y-110737258D02*
X229422500Y-110262742D01*
X228377500Y-110737258D02*
X228377500Y-110262742D01*
%TO.C,C6*%
X246590000Y-108640580D02*
X246590000Y-108359420D01*
X247610000Y-108640580D02*
X247610000Y-108359420D01*
%TO.C,J2*%
X214100000Y-117325000D02*
X214100000Y-118575000D01*
X215150000Y-122825000D02*
X218200000Y-122825000D01*
X218700000Y-118375000D02*
X218700000Y-117625000D01*
X222000000Y-118375000D02*
X222000000Y-117625000D01*
X216200000Y-117625000D02*
X214400000Y-117625000D01*
X214400000Y-117625000D02*
X214400000Y-118375000D01*
X217700000Y-117625000D02*
X217700000Y-118375000D01*
X222010000Y-117615000D02*
X214390000Y-117615000D01*
X220200000Y-118375000D02*
X222000000Y-118375000D01*
X215150000Y-119875000D02*
X215150000Y-122825000D01*
X222000000Y-119875000D02*
X221250000Y-119875000D01*
X218700000Y-117625000D02*
X217700000Y-117625000D01*
X215350000Y-117325000D02*
X214100000Y-117325000D01*
X214400000Y-118375000D02*
X216200000Y-118375000D01*
X221250000Y-122825000D02*
X218200000Y-122825000D01*
X214390000Y-123585000D02*
X222010000Y-123585000D01*
X221250000Y-119875000D02*
X221250000Y-122825000D01*
X216200000Y-118375000D02*
X216200000Y-117625000D01*
X214400000Y-119875000D02*
X215150000Y-119875000D01*
X222010000Y-123585000D02*
X222010000Y-117615000D01*
X214390000Y-117615000D02*
X214390000Y-123585000D01*
X217700000Y-118375000D02*
X218700000Y-118375000D01*
X222000000Y-117625000D02*
X220200000Y-117625000D01*
X220200000Y-117625000D02*
X220200000Y-118375000D01*
%TO.C,F1*%
X205737936Y-101090000D02*
X206942064Y-101090000D01*
X205737936Y-102910000D02*
X206942064Y-102910000D01*
%TO.C,C4*%
X230190000Y-108640580D02*
X230190000Y-108359420D01*
X231210000Y-108640580D02*
X231210000Y-108359420D01*
%TO.C,J4*%
X254800000Y-117625000D02*
X253000000Y-117625000D01*
X253000000Y-117625000D02*
X253000000Y-118375000D01*
X249000000Y-117625000D02*
X247200000Y-117625000D01*
X251500000Y-117625000D02*
X250500000Y-117625000D01*
X247950000Y-122825000D02*
X251000000Y-122825000D01*
X254810000Y-117615000D02*
X247190000Y-117615000D01*
X247190000Y-117615000D02*
X247190000Y-123585000D01*
X246900000Y-117325000D02*
X246900000Y-118575000D01*
X254800000Y-118375000D02*
X254800000Y-117625000D01*
X254050000Y-119875000D02*
X254050000Y-122825000D01*
X250500000Y-118375000D02*
X251500000Y-118375000D01*
X247200000Y-118375000D02*
X249000000Y-118375000D01*
X248150000Y-117325000D02*
X246900000Y-117325000D01*
X253000000Y-118375000D02*
X254800000Y-118375000D01*
X251500000Y-118375000D02*
X251500000Y-117625000D01*
X254810000Y-123585000D02*
X254810000Y-117615000D01*
X250500000Y-117625000D02*
X250500000Y-118375000D01*
X247190000Y-123585000D02*
X254810000Y-123585000D01*
X247200000Y-117625000D02*
X247200000Y-118375000D01*
X247950000Y-119875000D02*
X247950000Y-122825000D01*
X254050000Y-122825000D02*
X251000000Y-122825000D01*
X254800000Y-119875000D02*
X254050000Y-119875000D01*
X247200000Y-119875000D02*
X247950000Y-119875000D01*
X249000000Y-118375000D02*
X249000000Y-117625000D01*
%TO.C,C1*%
X217488748Y-114070000D02*
X218911252Y-114070000D01*
X217488748Y-116790000D02*
X218911252Y-116790000D01*
%TO.C,L2*%
X232200000Y-112300000D02*
X232200000Y-109100000D01*
X232200000Y-104900000D02*
X232200000Y-101700000D01*
X242800000Y-101700000D02*
X242800000Y-104900000D01*
X242800000Y-112300000D02*
X232200000Y-112300000D01*
X242800000Y-109100000D02*
X242800000Y-112300000D01*
X232200000Y-101700000D02*
X242800000Y-101700000D01*
%TO.C,C5*%
X250288748Y-114070000D02*
X251711252Y-114070000D01*
X250288748Y-116790000D02*
X251711252Y-116790000D01*
%TO.C,R7*%
X242077500Y-114650242D02*
X242077500Y-115124758D01*
X243122500Y-114650242D02*
X243122500Y-115124758D01*
%TO.C,J1*%
X203917000Y-110313000D02*
X203871000Y-110266000D01*
X210201000Y-114140000D02*
X200280000Y-114140000D01*
X206009000Y-112815000D02*
X205963000Y-112768000D01*
X203701000Y-110506000D02*
X203666000Y-110471000D01*
X200840000Y-103860000D02*
X200840000Y-114140000D01*
X210201000Y-103860000D02*
X200280000Y-103860000D01*
X200040000Y-103620000D02*
X200040000Y-104120000D01*
X200280000Y-103860000D02*
X200280000Y-114140000D01*
X206215000Y-112610000D02*
X206179000Y-112575000D01*
X202340000Y-103860000D02*
X202340000Y-114140000D01*
X200780000Y-103620000D02*
X200040000Y-103620000D01*
X210201000Y-103860000D02*
X210201000Y-114140000D01*
X207241000Y-103860000D02*
X207241000Y-114140000D01*
X203405000Y-105776000D02*
G75*
G03*
X203259747Y-106488805I1535001J-683999D01*
G01*
X206475000Y-107144000D02*
G75*
G03*
X206475427Y-105776958I-1534993J684001D01*
G01*
X205624000Y-104925000D02*
G75*
G03*
X204256958Y-104924573I-684001J-1534993D01*
G01*
X204256000Y-107995001D02*
G75*
G03*
X205623042Y-107995427I684000J1535001D01*
G01*
X203260000Y-106460000D02*
G75*
G03*
X203405244Y-107143318I1680000J0D01*
G01*
X206620000Y-111540000D02*
G75*
G03*
X206620000Y-111540000I-1680000J0D01*
G01*
%TO.C,R10*%
X247622500Y-111837258D02*
X247622500Y-111362742D01*
X246577500Y-111837258D02*
X246577500Y-111362742D01*
%TO.C,C2*%
X214810000Y-109340580D02*
X214810000Y-109059420D01*
X213790000Y-109340580D02*
X213790000Y-109059420D01*
%TO.C,R1*%
X224677500Y-119862742D02*
X224677500Y-120337258D01*
X225722500Y-119862742D02*
X225722500Y-120337258D01*
%TO.C,D3*%
X240750000Y-119750000D02*
X238850000Y-119750000D01*
X240760000Y-121780000D02*
X240760000Y-118415000D01*
X238840000Y-118415000D02*
X238840000Y-121780000D01*
X240760000Y-118415000D02*
X238840000Y-118415000D01*
X238840000Y-121780000D02*
X240760000Y-121780000D01*
%TO.C,R6*%
X230177500Y-111837258D02*
X230177500Y-111362742D01*
X231222500Y-111837258D02*
X231222500Y-111362742D01*
%TO.C,R9*%
X258522500Y-119862742D02*
X258522500Y-120337258D01*
X257477500Y-119862742D02*
X257477500Y-120337258D01*
%TO.C,Q3*%
X254240000Y-115000000D02*
X254240000Y-114350000D01*
X257360000Y-115000000D02*
X257360000Y-115650000D01*
X254240000Y-115000000D02*
X254240000Y-115650000D01*
X257360000Y-115000000D02*
X257360000Y-113325000D01*
%TO.C,C3*%
X233888748Y-116790000D02*
X235311252Y-116790000D01*
X233888748Y-114070000D02*
X235311252Y-114070000D01*
%TO.C,U2*%
X246860000Y-114762500D02*
X246860000Y-115562500D01*
X246860000Y-114762500D02*
X246860000Y-112962500D01*
X243740000Y-114762500D02*
X243740000Y-113962500D01*
X243740000Y-114762500D02*
X243740000Y-115562500D01*
%TO.C,D5*%
X255240000Y-118415000D02*
X255240000Y-121780000D01*
X257160000Y-121780000D02*
X255240000Y-121780000D01*
X257160000Y-118415000D02*
X255240000Y-118415000D01*
X257160000Y-121780000D02*
X257160000Y-118415000D01*
X255250000Y-119750000D02*
X257150000Y-119750000D01*
%TO.C,R3*%
X226722500Y-114650242D02*
X226722500Y-115124758D01*
X225677500Y-114650242D02*
X225677500Y-115124758D01*
%TO.C,D6*%
X244700000Y-120425000D02*
X245800000Y-120425000D01*
X245250000Y-119825000D02*
X244850000Y-119825000D01*
X245250000Y-120425000D02*
X245650000Y-119825000D01*
X246250000Y-117875000D02*
X246250000Y-118425000D01*
X244250000Y-118425000D02*
X244250000Y-117875000D01*
X245650000Y-119825000D02*
X245250000Y-119825000D01*
X245250000Y-119325000D02*
X245250000Y-119825000D01*
X244250000Y-122325000D02*
X246250000Y-122325000D01*
X244850000Y-119825000D02*
X245250000Y-120425000D01*
X244250000Y-117875000D02*
X246250000Y-117875000D01*
X246250000Y-122325000D02*
X246250000Y-118425000D01*
X245250000Y-120825000D02*
X245250000Y-120425000D01*
X246250000Y-121175000D02*
X244250000Y-121175000D01*
X244250000Y-122325000D02*
X244250000Y-118425000D01*
%TD*%
M02*
